<svg width="45" height="45" viewBox="0 0 45 45" fill="none" xmlns="http://www.w3.org/2000/svg">
<g clip-path="url(#clip0_2704_1128)">
<path d="M34.3422 10.6578L23.6844 9.47363L10.658 10.6578L9.47363 22.5L10.6578 34.3422L22.5 35.8225L34.3422 34.3422L35.5264 22.2041L34.3422 10.6578Z" fill="white"/>
<path d="M15.5162 29.0312C14.6311 28.4332 14.0182 27.5599 13.6836 26.4052L15.7383 25.5586C15.9248 26.2691 16.2504 26.8197 16.7152 27.2105C17.1772 27.6013 17.7397 27.7937 18.3969 27.7937C19.069 27.7937 19.6463 27.5894 20.1287 27.1808C20.6111 26.7722 20.8541 26.2511 20.8541 25.6207C20.8541 24.9754 20.5994 24.4482 20.0902 24.0398C19.5811 23.6314 18.9416 23.4269 18.1777 23.4269H16.9906V21.3931H18.0562C18.7135 21.3931 19.2672 21.2156 19.7172 20.8603C20.1672 20.5051 20.3922 20.0195 20.3922 19.4008C20.3922 18.8502 20.1908 18.4119 19.7883 18.0834C19.3858 17.7549 18.8764 17.5891 18.2576 17.5891C17.6537 17.5891 17.174 17.749 16.8187 18.0717C16.4635 18.3943 16.2058 18.791 16.0432 19.2588L14.0094 18.4121C14.2787 17.6482 14.7733 16.9732 15.4984 16.39C16.2238 15.8068 17.1504 15.5137 18.2754 15.5137C19.1072 15.5137 19.8562 15.6736 20.5195 15.9963C21.1826 16.3189 21.7037 16.766 22.0797 17.3344C22.4557 17.9056 22.6422 18.5453 22.6422 19.2556C22.6422 19.981 22.4676 20.5937 22.1182 21.097C21.7687 21.6004 21.3394 21.9851 20.8303 22.2547V22.3759C21.5023 22.6572 22.05 23.0865 22.4822 23.6638C22.9115 24.2412 23.1275 24.931 23.1275 25.7363C23.1275 26.5416 22.9232 27.2609 22.5146 27.8916C22.106 28.5223 21.5406 29.0195 20.8242 29.3806C20.1049 29.7418 19.2967 29.9254 18.3996 29.9254C17.3605 29.9283 16.4014 29.6293 15.5162 29.0312Z" fill="#1A73E8"/>
<path d="M28.125 18.835L25.8809 20.4662L24.7529 18.7551L28.8 15.8359H30.3514V29.6053H28.125V18.835Z" fill="#1A73E8"/>
<path d="M34.342 44.9998L44.9998 34.342L39.6709 31.9736L34.342 34.342L31.9736 39.6709L34.342 44.9998Z" fill="#EA4335"/>
<path d="M8.28955 39.6707L10.6579 44.9996H34.3421V34.3418H10.6579L8.28955 39.6707Z" fill="#34A853"/>
<path d="M3.55253 0C1.58985 0 0 1.58985 0 3.55253V34.342L5.3289 36.7103L10.6578 34.342V10.6578H34.342L36.7103 5.3289L34.3422 0H3.55253Z" fill="#4285F4"/>
<path d="M0 34.3418V41.4471C0 43.41 1.58985 44.9996 3.55253 44.9996H10.6578V34.3418H0Z" fill="#188038"/>
<path d="M34.3423 10.6574V34.3416H45.0001V10.6574L39.6712 8.28906L34.3423 10.6574Z" fill="#FBBC04"/>
<path d="M45.0001 10.6578V3.55253C45.0001 1.58962 43.4102 0 41.4476 0H34.3423V10.6578H45.0001Z" fill="#1967D2"/>
</g>
<defs>
<clipPath id="clip0_2704_1128">
<rect width="45" height="45" fill="white"/>
</clipPath>
</defs>
</svg>
