<svg width="18" height="18" viewBox="0 0 18 18" fill="none" xmlns="http://www.w3.org/2000/svg">
    <g clip-path="url(#clip0_2703_1128)">
        <path
            d="M9.18408 7.36328V10.8488H14.1266C13.9095 11.9697 13.2583 12.9188 12.2815 13.557L15.262 15.8234C16.9985 14.2525 18.0004 11.9452 18.0004 9.20429C18.0004 8.56612 17.942 7.95242 17.8334 7.36338L9.18408 7.36328Z"
            fill="#4285F4" />
        <path
            d="M4.03703 10.7129L3.36481 11.2172L0.985352 13.0335C2.49649 15.9708 5.59368 17.9999 9.18365 17.9999C11.6632 17.9999 13.742 17.1981 15.2616 15.8236L12.281 13.5572C11.4628 14.0972 10.4192 14.4245 9.18365 14.4245C6.7959 14.4245 4.76719 12.8454 4.04079 10.7181L4.03703 10.7129Z"
            fill="#34A853" />
        <path
            d="M0.98558 4.9668C0.359451 6.17766 0.000488281 7.54405 0.000488281 9.0004C0.000488281 10.4567 0.359451 11.8231 0.98558 13.034C0.98558 13.0421 4.04131 10.7104 4.04131 10.7104C3.85763 10.1704 3.74907 9.59766 3.74907 9.00031C3.74907 8.40295 3.85763 7.83026 4.04131 7.29026L0.98558 4.9668Z"
            fill="#FBBC05" />
        <path
            d="M9.18384 3.58365C10.5364 3.58365 11.7386 4.04183 12.6987 4.92548L15.3286 2.34823C13.7339 0.891879 11.6635 0 9.18384 0C5.59387 0 2.49649 2.02092 0.985352 4.9664L4.04099 7.29005C4.76729 5.16274 6.79608 3.58365 9.18384 3.58365Z"
            fill="#EA4335" />
    </g>
    <defs>
        <clipPath id="clip0_2703_1128">
            <rect width="18" height="18" fill="white" />
        </clipPath>
    </defs>
</svg>